<svg width="24" height="24" viewBox="0 0 24 24" fill="none" xmlns="http://www.w3.org/2000/svg">
<path d="M1.5 16.3161V7.76044C1.5 6.99024 1.94227 6.28848 2.63709 5.95618L12.0481 1.45524C12.6438 1.17035 13.3417 1.19782 13.9131 1.52865L21.5021 5.92225C22.1197 6.27983 22.5 6.93943 22.5 7.6531V16.2651C22.5 17.022 22.0727 17.7141 21.396 18.0532L12.4619 22.5299C11.8744 22.8243 11.1799 22.8113 10.6038 22.4952L2.53792 18.0695C1.89784 17.7183 1.5 17.0462 1.5 16.3161Z" stroke="black"/>
<path d="M2 7L11.5237 12.5236L22 7" stroke="black"/>
<path d="M11.5234 12.5234V22.5235" stroke="black"/>
<path d="M7.5 4L17 9.5" stroke="black" stroke-linecap="square"/>
</svg>
