<svg width="24" height="24" viewBox="0 0 24 24" fill="none" xmlns="http://www.w3.org/2000/svg">
<path d="M0 4.66667C0 3.19391 1.19391 2 2.66667 2H21.3333C22.8061 2 24 3.19391 24 4.66667V7C24 9.20914 22.2091 11 20 11C17.7909 11 16 9.20914 16 7C16.5523 7 16.9837 7.46 17.1644 7.98189C17.5711 9.15653 18.687 10 20 10C21.6569 10 23 8.65685 23 7V4.66667C23 3.74619 22.2538 3 21.3333 3H2.66667C1.74619 3 1 3.74619 1 4.66667V7C1 8.65685 2.34315 10 4 10C5.31297 10 6.42895 9.15653 6.83563 7.98189C7.01632 7.46 7.44772 7 8 7C8 9.20914 6.20914 11 4 11C1.79086 11 0 9.20914 0 7V4.66667Z" fill="black"/>
<path d="M9.16437 7.98189C8.98368 7.46 8.55229 7 8 7C8 9.20914 9.79086 11 12 11C14.2091 11 16 9.20914 16 7C15.4477 7 15.0163 7.46 14.8356 7.98189C14.4289 9.15653 13.313 10 12 10C10.687 10 9.57105 9.15653 9.16437 7.98189Z" fill="black"/>
<path d="M1.5 9.50012V19.4999C1.5 20.6045 2.39543 21.5 3.5 21.5H20.5C21.6046 21.5 22.5 20.6045 22.5 19.5V9.50012" stroke="black" stroke-linecap="round"/>
<path d="M5.5 21.5V15.5C5.5 14.3954 6.39543 13.5 7.5 13.5H8.5C9.60457 13.5 10.5 14.3954 10.5 15.5V21.5" stroke="black"/>
<path d="M17.5 17.5H15.5C14.3954 17.5 13.5 16.6046 13.5 15.5C13.5 14.3954 14.3954 13.5 15.5 13.5H17.5C18.6046 13.5 19.5 14.3954 19.5 15.5C19.5 16.6046 18.6046 17.5 17.5 17.5Z" stroke="black"/>
</svg>
