<svg width="110" height="38" viewBox="0 0 110 38" fill="none" xmlns="http://www.w3.org/2000/svg">
<path d="M40.1674 11.0898C32.5264 11.0898 26.3213 17.1265 26.3213 24.5448C26.3213 31.9631 32.5392 37.9873 40.1674 37.9873C47.8085 37.9873 54.0264 31.9506 54.0264 24.5448C54.0136 17.1265 47.8085 11.0898 40.1674 11.0898ZM47.1931 24.5448C47.1931 28.4158 44.0392 31.5524 40.1674 31.5524C36.2828 31.5524 33.129 28.4033 33.129 24.5448C33.129 20.6739 36.2828 17.5373 40.1674 17.5373C44.0521 17.5248 47.1931 20.6739 47.1931 24.5448Z" fill="#FF4338"/>
<path d="M65.974 0H58.4355V37.3403H65.974V0Z" fill="#FF4338"/>
<path d="M78.141 0H70.6025V37.3403H78.141V0Z" fill="#FF4338"/>
<path d="M108.641 18.8195C106.5 13.9902 101.859 11.1025 96.2184 11.1025C88.5773 11.1025 82.3594 17.1392 82.3594 24.5575C82.3594 31.9758 88.5773 38 96.2184 38C99.1286 38 101.565 37.191 103.667 35.5231L103.718 37.3404H110V27.9928C110 24.9807 109.847 21.5329 108.641 18.8195ZM103.244 24.5451C103.244 28.416 100.09 31.5526 96.2184 31.5526C92.3337 31.5526 89.1799 28.4036 89.1799 24.5451C89.1799 20.6741 92.3337 17.5375 96.2184 17.5375C100.09 17.5375 103.244 20.6741 103.244 24.5451Z" fill="#FF4338"/>
<path d="M25.5 12.0485L25.4103 11.7622H1.23077V17.5251H13.8846L0 37.1412L0.0384616 37.3403H24.5385V31.3037H11.8846L25.5 12.0485Z" fill="#FF4338"/>
</svg>
